<svg version="1.1" viewBox="0 0 2048 2048" width="1280" height="1280" xmlns="http://www.w3.org/2000/svg">
<path transform="translate(1992)" d="m0 0h11v2h2l4 8 1 3v12l-3 17-14 46-12 48-7 18-9 16-13 17-11 13-8 11 1 6 12 11 11 9 8 9 6 10 5 16 3 18 4 17 1 7 2 78 3 45 5 41 7 39v13l-3 10-6 9-4 5-9 6-9 4-9 2-13 1-18-2-13-5-12-9-3-2h-4l-2 6v8l7 38 3 27 1 14v30l-2 25-4 26-7 28-11 33-9 20-10 15-6 10-3 11-1 11v15l3 58 2 18 5 16 6 11 14 20 14 19 14 20 9 15 6 12 3 11 1 8 4 109-2 16-5 12-10 13-11 8-9 3-10-4-10-9-10-15-6-16-1-5v-10l3-9 6-11 11-18 5-13 2-12v-14l-3-15-5-12-7-9-6-7-8-7-8-8-8-7-8-8-9-11-10-12-14-20-9-12-5-6h-4l-7 10-13 23-5 12 1 7 7 14 12 19 14 23 12 19 15 24 12 20 9 19 4 15 1 7v13l-2 16-5 16-4 6-4 3-21 5-19 4h-7l-8-6-9-10-10-13-4-8v-11l6-20 5-17 1-6v-18l-4-13-6-11-9-10-7-7-12-9-3-1h-7l-8 6-8 9-14 19-16 23-5 9-2 8v13l10 49 9 44 4 28 5 56 3 50v19l-3 36-6 46-18 119-7 36-7 25-8 24-25 60-6 18-5 22-1 9v33l4 19 4 10 6 7 10 4 27 3 81 7 38 3 47 3 30 4 16 5 15 8 13 11 16 12 14 9 10 8 7 8 4 12-1 1h-12l-94-9-6 1-9 6-8 5-14 3h-49l-35-3-32-6-39-11-43-8-56-12-17-5-10-5-6-5-3-5-1-4v-8l10-54 3-31v-11l-2-15-9-36-8-28-15-45-8-18-8-16-9-16-10-16-8-10-2-2h-6l-8 9-11 17-9 15-15 29-11 23-15 33-13 26-15 25-12 21-9 20-10 30-5 19-1 6v13l4 8 6 7 11 5 25 5 55 9 68 10 35 6 28 7 31 9 15 6 14 7 12 9 8 7 9 11 10 15 3 7-4 1h-35l-46-2-23-2-7 3-11 8-8 6-12 6-10 3h-37v-2l-10-3-22-6-40-9-37-9-19-3h-19l-38 4-10 1h-37l-16-3-10-5-4-5-4-11-1-6-1-17v-25l3-36 11-77 1-34-4-44-7-45-6-29-5-13-8-14-11-16-12-17-9-10-4-3-5 1-7 8-12 17-20 30-16 23-12 17-13 18-12 17-14 19-11 14-11 13-11 14-13 15-11 12-11 11-6 7-6 5-5 6-8 7-10 9-11 9-17 14-13 10-18 12-21 13-24 13-21 10-26 10-23 7-21 5-33 5-38 4-49 3-51 2-39 1h-314l-41-1h-107l-8-2 2-4 8-7 15-7 22-6 34-6 66-11 100-18 56-11 55-10 89-15 60-11 36-8 35-10 16-6 28-12 19-10 27-16 12-8 17-12 21-16 14-12 10-9 8-7 13-12 9-10 12-12 1-2h2l2-4 8-9 9-11 11-14 11-15 20-30 15-26 12-23 13-28 13-33 8-24 8-32 4-23 2-16 2-39 1-32v-17l-2-83-1-29v-20l3-43 4-29 6-28 8-29 11-32 13-31 12-26 15-30 14-24 12-20 14-20 12-16 9-11 12-14 10-11 7-8 24-24 8-7 10-9 14-11 13-10 18-13 36-22 16-9 23-12 22-12 26-14 23-13 26-15 16-11 19-14 13-10 26-22 17-14 19-14 17-11 15-9 27-14 29-13 30-12 23-10 16-9 12-9 12-11 7-8 7-11 8-16 7-21 7-33 4-26 1-46 7-36 8-34 1-15-3-9-5-6-27-18-13-11-10-12-10-15-9-16-8-16-8-20-5-17-4-22-1-10v-45l4-13 6-7 7 1 15 13 18 18 11 9 15 12 14 10 18 13 12 9 16 13 10 10 11 15 11 21 6 17 7 27 4 8 5 4 7 2h13l10-4 4-5 4-13 6-25 8-26 7-15 9-16 12-16 9-10 12-13 5-6h2l2-4 22-22 8-7 16-13z" fill="#fff"/>
</svg>
